<?xml version="1.0" standalone="no"?>
<!DOCTYPE svg PUBLIC "-//W3C//DTD SVG 20010904//EN"
 "http://www.w3.org/TR/2001/REC-SVG-20010904/DTD/svg10.dtd">
<svg version="1.0" xmlns="http://www.w3.org/2000/svg"
 width="512.000000pt" height="512.000000pt" viewBox="0 0 512.000000 512.000000"
 preserveAspectRatio="xMidYMid meet">
<metadata>
Created by potrace 1.14, written by Peter Selinger 2001-2017
</metadata>
<g transform="translate(0.000000,512.000000) scale(0.100000,-0.100000)"
fill="#000000" stroke="none">
<path d="M2369 5116 c-2 -2 -38 -7 -78 -10 -41 -4 -77 -9 -80 -11 -4 -2 -31
-6 -61 -10 -30 -3 -86 -13 -124 -22 -37 -8 -73 -16 -80 -17 -49 -10 -241 -70
-291 -91 -33 -14 -69 -27 -73 -26 -1 1 -23 -10 -50 -23 -26 -13 -69 -34 -97
-46 -27 -13 -66 -33 -87 -46 -21 -13 -38 -21 -38 -17 0 5 -4 3 -8 -3 -4 -6
-27 -22 -52 -35 -92 -49 -292 -195 -389 -283 -72 -66 -188 -184 -231 -235 -25
-30 -50 -59 -55 -65 -51 -55 -215 -295 -215 -314 0 -6 -4 -12 -9 -14 -11 -3
-116 -211 -156 -307 -43 -104 -92 -250 -110 -331 -2 -8 -8 -30 -14 -48 -5 -18
-10 -35 -10 -37 0 -3 -2 -18 -5 -33 -8 -40 -16 -83 -21 -117 -3 -16 -7 -41
-10 -55 -27 -133 -27 -559 0 -715 2 -16 7 -43 9 -60 3 -24 23 -122 41 -205 12
-55 72 -239 104 -319 41 -102 129 -286 161 -336 11 -16 27 -43 36 -60 15 -27
87 -136 106 -160 203 -262 327 -389 538 -549 120 -90 254 -173 384 -238 142
-71 170 -83 271 -119 50 -17 97 -34 105 -37 22 -8 99 -30 130 -38 34 -8 181
-42 185 -43 3 0 20 -2 38 -5 153 -25 224 -30 422 -31 226 0 311 8 505 46 58
11 115 23 128 25 47 9 320 103 387 134 395 179 672 387 964 725 132 154 300
436 389 655 31 75 80 212 87 240 1 8 12 51 24 95 11 44 23 95 26 114 3 19 7
37 9 40 2 3 7 29 11 56 4 28 9 61 11 75 19 112 26 485 12 605 -26 230 -94 517
-153 650 -8 17 -23 55 -35 85 -79 196 -265 507 -375 626 -5 6 -28 33 -50 59
-106 126 -363 359 -462 417 -18 11 -33 24 -33 29 0 5 -6 9 -14 9 -7 0 -24 9
-37 19 -60 47 -302 174 -435 228 -119 48 -395 128 -479 139 -16 2 -41 6 -55 9
-14 3 -43 8 -65 11 -22 3 -53 7 -70 10 -37 5 -471 14 -476 10z"/>
</g>
</svg>
